<?xml version="1.0" encoding="UTF-8"?>
<svg  enable-background="new 0 0 512 512" version="1.1" viewBox="0 0 512 512" xml:space="preserve" xmlns="http://www.w3.org/2000/svg">
		<path class="like-icon" d="m376 30c-27.783 0-53.255 8.804-75.707 26.168-21.525 16.647-35.856 37.85-44.293 53.268-8.437-15.419-22.768-36.621-44.293-53.268-22.452-17.364-47.924-26.168-75.707-26.168-77.532 0-136 63.417-136 147.51 0 90.854 72.943 153.02 183.37 247.12 18.752 15.981 40.007 34.095 62.099 53.414 2.912 2.55 6.652 3.954 10.532 3.954s7.62-1.404 10.532-3.953c22.094-19.322 43.348-37.435 62.111-53.425 110.41-94.093 183.36-156.25 183.36-247.11 0-84.097-58.468-147.51-136-147.51z"/>
</svg>
